<svg version="1.1" id="Layer_1" xmlns="http://www.w3.org/2000/svg" xmlns:xlink="http://www.w3.org/1999/xlink" x="0px" y="0px"
	 width="100%" viewBox="0 0 384 384" enable-background="new 0 0 384 384" xml:space="preserve">
<path fill="#000000" opacity="1.000000" stroke="none" 
	d="
M193.571442,282.500183 
	C163.537445,254.117355 133.769592,225.976318 103.481422,197.343384 
	C108.329369,192.292480 113.036842,187.443176 117.677338,182.530609 
	C120.120728,179.943954 123.238907,177.830688 122.540909,173.336533 
	C122.267090,171.573517 123.952690,169.649323 126.032455,169.801544 
	C130.215240,170.107666 132.329010,167.256973 134.726044,164.770157 
	C152.303192,146.534698 169.858841,128.278549 187.424454,110.031982 
	C192.254990,105.014191 192.239090,105.040993 197.106277,109.636032 
	C225.579102,136.516861 254.064102,163.384796 282.534393,190.268311 
	C283.364380,191.052032 284.076782,191.960297 285.278809,193.292328 
	C281.030670,197.831497 276.954376,202.359360 272.695892,206.708832 
	C248.446960,231.475876 224.168152,256.213715 199.845032,280.907867 
	C198.295334,282.481171 196.884491,285.604492 193.571442,282.500183 
M174.350830,217.481903 
	C175.135391,215.696259 174.208755,214.898285 172.744095,213.961456 
	C169.504562,211.889374 168.692688,209.782837 172.844925,207.480255 
	C175.569412,205.969421 175.473022,204.082367 172.643799,202.290131 
	C169.594955,200.358810 169.265045,198.044739 172.593552,195.942978 
	C175.243805,194.269516 175.713165,192.524033 172.818451,190.735474 
	C169.374344,188.607468 169.736969,186.579071 172.776718,184.470291 
	C175.377548,182.666016 175.687714,180.607452 172.650696,179.275024 
	C170.114166,178.162186 170.218643,176.021896 169.369629,172.901169 
	C169.299545,176.400024 168.830490,178.333954 166.227081,179.526321 
	C163.871796,180.605026 163.927444,183.007950 166.231705,184.153259 
	C170.789978,186.418900 169.984406,188.464294 166.494400,190.850800 
	C164.207962,192.414276 163.715088,193.886108 166.367828,195.786346 
	C170.526932,198.765701 170.354156,200.283981 165.716141,203.722366 
	C165.275620,204.922714 165.573029,206.043518 166.716171,207.498184 
	C170.467072,209.585205 170.660660,211.804245 166.859528,214.003021 
	C164.111298,215.592728 163.401886,217.287506 166.644699,218.900284 
	C168.572220,219.858902 169.363464,221.152695 169.280106,223.186615 
	C169.111038,227.311203 171.372238,228.697540 175.190674,228.671646 
	C185.643600,228.600739 196.097321,228.642792 206.550735,228.654968 
	C208.256271,228.656952 209.886307,228.532867 211.694672,226.787186 
	C214.521774,225.619202 214.841858,223.175812 214.845444,220.577957 
	C214.854431,214.080978 215.010056,207.579300 214.808792,201.088730 
	C214.679764,196.927673 215.532944,194.802078 220.487442,194.661423 
	C229.821808,194.396408 237.642334,184.499664 236.553574,175.250427 
	C235.468353,166.031006 228.223160,158.843216 219.573486,158.404816 
	C211.466446,157.993912 203.032806,163.968811 201.394623,171.283829 
	C199.222565,180.982819 203.327652,190.098160 211.636597,193.688385 
	C213.937576,194.682617 214.263382,196.384079 214.253082,198.511887 
	C214.219208,205.508530 214.176239,212.506439 214.279114,219.501785 
	C214.324234,222.570251 213.217590,224.992645 210.099045,227.207581 
	C198.048523,227.279907 185.997955,227.347931 173.947495,227.429886 
	C172.390366,227.440460 170.890442,227.346176 170.387070,225.513138 
	C169.848648,223.552567 169.619995,221.556931 171.260559,219.972549 
	C172.072464,219.188446 173.099716,218.627335 174.000153,217.997696 
	C174.000153,217.997696 173.969971,218.029251 174.350830,217.481903 
M184.075470,169.586136 
	C180.319885,169.586136 176.564285,169.586136 172.808701,169.586136 
	C172.818359,169.850952 172.828018,170.115784 172.837677,170.380600 
	C181.296661,170.380600 189.755646,170.380600 198.214630,170.380600 
	C198.211868,170.311920 198.209091,170.243256 198.206314,170.174576 
	C193.763153,169.957855 189.319977,169.741135 184.075470,169.586136 
M192.229141,204.382568 
	C188.747498,204.382568 185.265869,204.382568 181.784225,204.382568 
	C187.206100,205.654053 192.577194,205.889633 197.928635,204.385513 
	C196.317520,204.385513 194.706421,204.385513 192.229141,204.382568 
M204.410019,216.249649 
	C197.069550,216.249649 189.729095,216.249649 182.388626,216.249649 
	C182.391861,216.376801 182.395096,216.503937 182.398331,216.631088 
	C190.453552,216.631088 198.508789,216.631088 206.564026,216.631088 
	C206.563690,216.549911 206.563354,216.468750 206.563004,216.387573 
	C206.066559,216.352966 205.570114,216.318359 204.410019,216.249649 
M201.070450,193.650360 
	C201.564224,193.606079 202.057983,193.561813 202.551758,193.517548 
	C202.550339,193.445816 202.548904,193.374100 202.547470,193.302368 
	C195.851807,193.302368 189.156128,193.302368 182.460449,193.302368 
	C182.461456,193.425598 182.462448,193.548843 182.463455,193.672073 
	C188.438004,193.672073 194.412567,193.672073 201.070450,193.650360 
z"/>
<path fill="#000000" opacity="1.000000" stroke="none" 
	d="
M165.807678,203.453339 
	C168.614090,202.993622 171.470642,202.090729 173.922699,204.886276 
	C172.154709,207.710434 169.346451,206.835754 166.499390,207.093597 
	C165.573029,206.043518 165.275620,204.922714 165.807678,203.453339 
z"/>
<path fill="#000000" opacity="1.000000" stroke="none" 
	d="
M212.310516,182.706268 
	C211.018677,181.380188 209.953400,180.334793 208.949509,179.233444 
	C207.692886,177.854828 207.994781,176.568939 209.229248,175.317032 
	C210.447800,174.081284 211.860168,173.494080 213.048676,175.021881 
	C216.248108,179.134659 218.514908,176.761200 220.894821,174.141968 
	C222.342651,172.548523 223.907379,171.061554 225.412262,169.519592 
	C226.531662,168.372589 227.670929,168.250687 228.862717,169.406967 
	C230.006653,170.516800 231.024765,171.757919 229.539062,173.208984 
	C225.188080,177.458618 220.755371,181.624588 216.285034,185.889755 
	C214.737411,185.497330 213.776932,184.063705 212.310516,182.706268 
z"/>
<path fill="#000000" opacity="1.000000" stroke="none" 
	d="
M174.014832,217.981506 
	C168.611969,218.625137 168.611969,218.625137 165.679733,215.948914 
	C168.965363,214.688385 171.798508,212.939896 173.977371,217.620422 
	C173.969971,218.029251 174.000153,217.997696 174.014832,217.981506 
z"/>
<path fill="#000000" opacity="1.000000" stroke="none" 
	d="
M172.342987,183.088409 
	C169.948486,183.116287 167.684311,184.116348 166.025192,181.688568 
	C167.510818,179.069107 169.845413,179.656281 171.959488,180.203873 
	C173.334778,180.560074 174.399277,181.516739 172.342987,183.088409 
z"/>
<path fill="#000000" opacity="1.000000" stroke="none" 
	d="
M167.422394,194.879242 
	C165.684204,193.501633 165.676590,192.311050 167.572693,191.966827 
	C169.565155,191.605118 171.799332,190.954941 173.698914,193.237747 
	C172.306366,195.874725 169.957291,195.176437 167.422394,194.879242 
z"/>
</svg>